<?xml version="1.0" encoding="UTF-8"?>
<svg version="1.1" xmlns="http://www.w3.org/2000/svg" width="1320" height="1000">
<path d="M0 0 C435.6 0 871.2 0 1320 0 C1320 330 1320 660 1320 1000 C884.4 1000 448.8 1000 0 1000 C0 670 0 340 0 0 Z " fill="#000000" transform="translate(0,0)"/>
<path d="M0 0 C2.62657842 1.60656531 4.66554169 3.68316586 6.80859375 5.87890625 C7.42017838 6.48379379 8.031763 7.08868134 8.66188049 7.7118988 C9.94686193 8.99212878 11.22309355 10.28119393 12.4909668 11.57836914 C14.43168469 13.55657237 16.40691526 15.49465001 18.38867188 17.43164062 C19.63506303 18.68265765 20.87928088 19.9358445 22.12109375 21.19140625 C23.00685341 22.05591148 23.00685341 22.05591148 23.9105072 22.93788147 C26.89535689 26.04515244 27.92805424 27.37408392 28.43676758 31.79980469 C27.97645315 35.1725277 27.58430373 36.30317548 25.25 38.6875 C24.62480469 39.34105469 23.99960937 39.99460938 23.35546875 40.66796875 C22.57816406 41.43753906 21.80085938 42.20710938 21 43 C19.95366692 44.0578424 18.90814971 45.11649217 17.86328125 46.17578125 C14.929195 49.13813004 11.97010495 52.07378823 9 55 C9.72316406 56.15048828 9.72316406 56.15048828 10.4609375 57.32421875 C12.41181562 60.71597386 12.75701796 62.13920841 12 66 C9.96657286 68.96387411 7.53203127 71.45837771 5 74 C4.34 74.66257812 3.68 75.32515625 3 76.0078125 C1.66534865 77.33725037 0.32678781 78.66277479 -1.015625 79.984375 C-3.62109697 82.63087803 -6.03594356 85.41992982 -8.45703125 88.234375 C-10.21796344 90.24941639 -12.06973331 92.14694398 -14 94 C-12.64937713 97.02496581 -11.14970763 99.0805694 -8.77734375 101.3828125 C-8.15666016 101.99253906 -7.53597656 102.60226562 -6.89648438 103.23046875 C-6.25001953 103.85566406 -5.60355469 104.48085938 -4.9375 105.125 C-3.6527607 106.37536074 -2.37010319 107.62786516 -1.08984375 108.8828125 C-0.52128662 109.43340332 0.04727051 109.98399414 0.63305664 110.55126953 C2.52964422 112.56133396 2.980458 113.882748 3.4375 116.625 C2.20470448 126.13513685 -8.61324086 133.88231587 -15.15576172 140.3828125 C-16.38858811 141.61507395 -17.6209727 142.84777754 -18.85295105 144.08088684 C-22.18067208 147.40917915 -25.51450119 150.73129056 -28.84950018 154.05228806 C-32.34044694 157.53068973 -35.82568997 161.01479701 -39.31155396 164.49829102 C-45.9053422 171.08587557 -52.50420979 177.66834741 -59.10493863 184.24897671 C-66.62280318 191.74444762 -74.13495548 199.24563242 -81.64664435 206.74729156 C-97.09143607 222.17120647 -112.54335154 237.58796762 -128 253 C-129.1065941 252.06122074 -130.21178799 251.12079084 -131.31640625 250.1796875 C-131.93201416 249.65616699 -132.54762207 249.13264648 -133.18188477 248.59326172 C-135.57236585 246.4984209 -137.78679163 244.28027529 -140 242 C-138.66778612 239.04488371 -137.21196898 236.96114403 -134.92565918 234.67169189 C-134.29473862 234.03513168 -133.66381805 233.39857147 -133.01377869 232.74272156 C-131.97731956 231.71233513 -131.97731956 231.71233513 -130.91992188 230.66113281 C-130.19132462 229.92903091 -129.46272736 229.19692902 -128.71205139 228.44264221 C-126.30262525 226.02441382 -123.88595735 223.61357368 -121.46875 221.203125 C-119.79458804 219.52761626 -118.12072311 217.85181068 -116.44714355 216.17572021 C-112.93985003 212.66547771 -109.42896281 209.15887981 -105.91552734 205.65478516 C-101.40243278 201.15310248 -96.89839828 196.6424786 -92.39699554 192.12910843 C-88.94348249 188.66838575 -85.48524158 185.21241936 -82.02552795 181.75789642 C-80.36219761 180.09590415 -78.70036241 178.4324142 -77.0400238 176.76743317 C-74.72483328 174.44719031 -72.40337515 172.13341076 -70.08007812 169.82128906 C-69.38910538 169.12626785 -68.69813263 168.43124664 -67.98622131 167.71516418 C-67.35530075 167.08988327 -66.72438019 166.46460236 -66.07434082 165.82037354 C-65.52570625 165.27249302 -64.97707169 164.7246125 -64.41181183 164.16012955 C-63 163 -63 163 -61 163 C-61 162.34 -61 161.68 -61 161 C-59.54786682 159.56169128 -59.54786682 159.56169128 -57.52954102 157.88745117 C-50.4642147 151.87522674 -43.96918806 145.27012731 -37.38793945 138.73803711 C-35.74348013 137.11028944 -34.09365431 135.48794692 -32.4387207 133.87084961 C-30.03951077 131.52605426 -27.65684997 129.165549 -25.27734375 126.80078125 C-24.15887306 125.71631462 -24.15887306 125.71631462 -23.01780701 124.60993958 C-22.34282669 123.93210922 -21.66784637 123.25427887 -20.97241211 122.5559082 C-20.07261879 121.66824516 -20.07261879 121.66824516 -19.15464783 120.76264954 C-17.77173317 119.05484982 -17.77173317 119.05484982 -18.2124176 116.89787292 C-19.2314681 114.44222086 -20.63670942 113.07074746 -22.5625 111.25 C-23.20316406 110.63640625 -23.84382813 110.0228125 -24.50390625 109.390625 C-24.99761719 108.93171875 -25.49132812 108.4728125 -26 108 C-29.25729183 109.42661465 -31.39228849 111.15668138 -33.87989235 113.68407631 C-34.643686 114.45498844 -35.40747964 115.22590057 -36.19441855 116.02017367 C-37.4436756 117.29658648 -37.4436756 117.29658648 -38.71817017 118.5987854 C-40.08695516 119.98447349 -41.45574047 121.37016126 -42.82453605 122.75583889 C-44.30962552 124.26125314 -45.79214461 125.76915724 -47.27395821 127.27779579 C-50.44839351 130.50954417 -53.62991363 133.73425734 -56.81257629 136.957901 C-60.24243396 140.43256165 -63.67178526 143.90771551 -67.09881616 147.3851645 C-75.62288743 156.03429471 -84.16347053 164.66687256 -92.71420288 173.28964233 C-93.33373705 173.91445781 -93.95327122 174.53927329 -94.59157915 175.18302257 C-99.69645898 180.33136207 -104.801988 185.47905765 -109.90754488 190.6267257 C-114.50908702 195.26637084 -119.10995334 199.90668498 -123.70996094 204.54785156 C-124.36568747 205.20943069 -125.021414 205.87100981 -125.69701104 206.55263679 C-136.26628683 217.21804044 -146.80612266 227.91210024 -157.33595295 238.61643226 C-168.17991559 249.63855071 -179.05899127 260.62514822 -189.96932352 271.58157575 C-196.08058744 277.72074607 -202.17498158 283.87483927 -208.22874832 290.07075882 C-255.65578281 338.58205666 -255.65578281 338.58205666 -283.6797905 347.82325363 C-288.12042569 349.3971005 -292.21362276 351.47488555 -296.37825966 353.66394997 C-299.71838823 355.3660937 -303.14773785 356.72267165 -306.640625 358.07421875 C-311.46531244 359.96734942 -316.16562604 362.15028999 -320.8671875 364.328125 C-322.32511719 365.00101563 -322.32511719 365.00101563 -323.8125 365.6875 C-325.15248047 366.31205078 -325.15248047 366.31205078 -326.51953125 366.94921875 C-332.02093245 369.27973359 -332.02093245 369.27973359 -335.625 368.25 C-338 367 -338 367 -340 364 C-340.94010913 357.23643711 -338.21618157 352.42404138 -335.25 346.5625 C-334.8065625 345.65951172 -334.363125 344.75652344 -333.90625 343.82617188 C-332.61814663 341.21018547 -331.31276322 338.60368514 -330 336 C-327.1596094 330.37025785 -327.1596094 330.37025785 -324.5625 324.625 C-323.31800686 321.73777591 -321.9926691 318.98243412 -320.5625 316.1875 C-318.40500998 311.93730946 -316.62468001 307.6204099 -314.90234375 303.1796875 C-313.84064856 300.61507315 -312.46365302 298.35457225 -311 296 C-309.48000712 292.49740772 -307.99553518 288.98903852 -306.55517673 285.45284843 C-303.44908102 279.33159285 -298.38208001 274.84024498 -293.55467224 270.06692505 C-292.46768318 268.97747332 -291.38157241 267.88714471 -290.29626232 266.79602039 C-287.32140742 263.81031 -284.33426144 260.83717162 -281.34490836 257.86598682 C-278.11952095 254.65584238 -274.9057186 251.43413568 -271.69046021 248.21385193 C-265.39491953 241.91209043 -259.08883741 235.62098032 -252.77920967 229.33332701 C-245.43409868 222.01291471 -238.0998939 214.68161629 -230.76622403 207.34974514 C-217.68460281 194.27199912 -204.59371351 181.20357071 -191.49731445 168.140625 C-178.78300851 155.45876998 -166.07432459 142.7713191 -153.37231445 130.07714844 C-152.58948172 129.29480119 -151.80664899 128.51245395 -151.00009405 127.70639922 C-147.8536604 124.5618942 -144.70723501 121.41738093 -141.560828 118.27284927 C-129.46176551 106.18131419 -117.35865509 94.09383133 -105.25468813 82.007206 C-101.59616878 78.35392534 -97.93780232 74.70049187 -94.27980685 71.04668665 C-86.58893702 63.36473023 -78.89664897 55.68420457 -71.19979625 48.00824209 C-68.01648467 44.83353815 -64.83394106 41.65807494 -61.65351677 38.48047829 C-58.74496583 35.57458912 -55.83412117 32.67101881 -52.92137898 29.76933096 C-51.86540671 28.71657133 -50.81027638 27.66296641 -49.75605338 26.60845508 C-48.32810533 25.18038227 -46.89681437 23.75565439 -45.46533871 22.33111763 C-44.66971458 21.53728208 -43.87409046 20.74344652 -43.05435652 19.92555535 C-41 18 -41 18 -38 16 C-33.1930393 16.26705337 -29.94573045 17.24994544 -26 20 C-25.74025391 19.41500732 -25.48050781 18.83001465 -25.21289062 18.22729492 C-23.91575722 15.84530055 -22.5143238 14.27081602 -20.59375 12.36328125 C-19.93246094 11.70392578 -19.27117187 11.04457031 -18.58984375 10.36523438 C-17.55537109 9.34913086 -17.55537109 9.34913086 -16.5 8.3125 C-15.46552734 7.27899414 -15.46552734 7.27899414 -14.41015625 6.22460938 C-9.53921305 1.39639374 -7.25549015 -0.82076946 0 0 Z " fill="#BFA25F" transform="translate(816,204)"/>
<path d="M0 0 C12.54 0 25.08 0 38 0 C47.01149425 12.3908046 47.01149425 12.3908046 50.4609375 17.484375 C50.84523422 18.05106903 51.22953094 18.61776306 51.62547302 19.20162964 C52.87750026 21.04961903 54.12647054 22.89964597 55.375 24.75 C55.8129892 25.39797546 56.25097839 26.04595093 56.70223999 26.71356201 C64.20154565 37.80889768 71.66202902 48.93043118 79.10211182 60.06555176 C80.22832553 61.75083335 81.35522052 63.4356599 82.48284912 65.11999512 C84.0809022 67.5080305 85.67564663 69.89824345 87.26953125 72.2890625 C87.73032578 72.97668671 88.1911203 73.66431091 88.6658783 74.37277222 C92.95524337 80.8211503 96.93143677 87.38858475 101 94 C101 62.98 101 31.96 101 0 C113.54 0 126.08 0 139 0 C139 50.82 139 101.64 139 154 C126.13 154 113.26 154 100 154 C90.58561933 144.51588318 90.58561933 144.51588318 88.77734375 140.00390625 C85.79547785 133.2783027 81.79094512 127.47842873 77.625 121.4375 C76.34365077 119.50048352 75.06491979 117.56173201 73.7890625 115.62109375 C70.62846361 110.8750679 67.31013272 106.26506217 63.9375 101.66821289 C60.91974344 97.51233317 58.04307282 93.26832989 55.1875 89 C54.37829102 87.81083984 54.37829102 87.81083984 53.55273438 86.59765625 C47.54676412 77.62671334 42.44923793 68.41232006 37 59 C37 90.35 37 121.7 37 154 C24.79 154 12.58 154 0 154 C0 103.18 0 52.36 0 0 Z " fill="#9D7237" transform="translate(198,639)"/>
<path d="M0 0 C12.87 0 25.74 0 39 0 C39 19.8 39 39.6 39 60 C59.79 60 80.58 60 102 60 C102 40.2 102 20.4 102 0 C114.87 0 127.74 0 141 0 C141 50.82 141 101.64 141 154 C128.13 154 115.26 154 102 154 C102 133.87 102 113.74 102 93 C81.21 93 60.42 93 39 93 C39 113.13 39 133.26 39 154 C26.13 154 13.26 154 0 154 C0 103.18 0 52.36 0 0 Z " fill="#DCCA7F" transform="translate(695,639)"/>
<path d="M0 0 C3.89262419 1.80957785 6.64949322 4.31038031 9.67578125 7.3046875 C10.20519821 7.82507599 10.73461517 8.34546448 11.28007507 8.88162231 C12.39295341 9.98003406 13.50307652 11.08124348 14.6105957 12.18505859 C16.31212681 13.87462943 18.03142393 15.54465115 19.75195312 17.21484375 C20.83187272 18.28530591 21.91068831 19.35688322 22.98828125 20.4296875 C23.50586502 20.92773895 24.02344879 21.42579041 24.55671692 21.93893433 C25.97387695 23.37451172 25.97387695 23.37451172 28 26 C27.81827449 30.11991575 25.12678121 32.24124758 22.33178711 35.0246582 C21.84705933 35.51143036 21.36233154 35.99820251 20.86291504 36.49972534 C19.25821861 38.10742952 17.6430298 39.70412758 16.02734375 41.30078125 C14.90392192 42.42114272 13.78109231 43.54209831 12.65882874 44.66362 C10.30190076 47.01594342 7.94014945 49.36327267 5.57446289 51.70678711 C2.56083724 54.69229341 -0.44419931 57.6862535 -3.44603825 60.68360615 C-6.32677609 63.55914966 -9.21216241 66.43001171 -12.09765625 69.30078125 C-12.63954149 69.84078577 -13.18142673 70.38079029 -13.73973274 70.93715858 C-15.29929398 72.48973854 -16.86215974 74.03891537 -18.42602539 75.5871582 C-19.31125381 76.46555862 -20.19648224 77.34395905 -21.10853577 78.24897766 C-23.26307163 80.29886513 -25.43078509 82.24810058 -27.68400478 84.18274307 C-31.94408242 87.90115052 -35.95856184 91.82153244 -39.9473877 95.82713318 C-40.70559673 96.58448779 -41.46380576 97.3418424 -42.24499083 98.12214714 C-44.76531427 100.64083365 -47.28206527 103.16305874 -49.79882812 105.68530273 C-51.61257807 107.49933497 -53.42654866 109.31314661 -55.24072266 111.12675476 C-59.1359339 115.02173886 -63.02961513 118.91824221 -66.92189026 122.8161602 C-72.54935649 128.45177955 -78.17960676 134.08461082 -83.81052393 139.71678186 C-92.94790756 148.85635004 -102.0830593 157.99814563 -111.21679688 167.14135742 C-120.0854116 176.01916174 -128.95508388 184.89590728 -137.82617188 193.77124023 C-138.37367727 194.31900836 -138.92118267 194.86677648 -139.48527914 195.43114363 C-142.23216594 198.17933554 -144.97907344 200.92750674 -147.72599125 203.67566764 C-170.48720606 226.44723646 -193.24479411 249.22242652 -216 272 C-217.11211124 271.05179639 -218.22350264 270.10274847 -219.33459473 269.15335083 C-219.95357887 268.62494158 -220.57256302 268.09653233 -221.21030426 267.55211067 C-225.48260207 263.84696746 -229.47131199 259.84019866 -233.5 255.875 C-234.43070313 254.98167969 -235.36140625 254.08835937 -236.3203125 253.16796875 C-237.19429687 252.30558594 -238.06828125 251.44320312 -238.96875 250.5546875 C-240.16661133 249.38655518 -240.16661133 249.38655518 -241.38867188 248.19482422 C-243 246 -243 246 -242.82936096 244.11375427 C-241.78061666 241.44086773 -240.37730805 240.01001633 -238.34155273 237.98510742 C-237.56661972 237.20717331 -236.79168671 236.4292392 -235.99327087 235.62773132 C-234.7262307 234.37921135 -234.7262307 234.37921135 -233.43359375 233.10546875 C-232.56614029 232.23988846 -231.69868683 231.37430817 -230.8049469 230.48249817 C-228.96484727 228.64912655 -227.12115072 226.8193591 -225.27416992 224.99291992 C-222.46610622 222.21579108 -219.66864329 219.4283449 -216.87304688 216.63867188 C-215.08134589 214.85615072 -213.28904681 213.0742305 -211.49609375 211.29296875 C-210.66556992 210.46669479 -209.83504608 209.64042084 -208.97935486 208.78910828 C-207.78385765 207.60802238 -207.78385765 207.60802238 -206.56420898 206.40307617 C-205.87439438 205.72008957 -205.18457977 205.03710297 -204.47386169 204.3334198 C-202.56424235 202.53221014 -200.63488536 200.83625461 -198.63684082 199.13882446 C-191.85122621 193.22911603 -185.60068767 186.73983603 -179.24633789 180.37573242 C-177.75932121 178.89007229 -176.27209221 177.40462464 -174.78466797 175.91937256 C-170.76427147 171.9035179 -166.74702385 167.88452724 -162.73048711 163.86481261 C-158.52441532 159.65620325 -154.31589772 155.45004079 -150.10777283 151.2434845 C-143.04913453 144.18666261 -135.99260127 137.12774093 -128.93725586 130.06762695 C-120.77289891 121.89781575 -112.60492864 113.73163032 -104.4350968 105.5672943 C-97.419126 98.55585461 -90.40509716 91.54247673 -83.39270204 84.52746087 C-79.20476775 80.33796543 -75.01615557 76.14915374 -70.82579231 71.96208763 C-66.8927295 68.03190391 -62.9621027 64.09930034 -59.0333786 60.16477966 C-57.58820196 58.71827618 -56.14216518 57.27263148 -54.69522667 55.8278904 C-52.72749321 53.86287104 -50.7628365 51.89482748 -48.79896545 49.9259491 C-47.93022036 49.06055009 -47.93022036 49.06055009 -47.04392487 48.17766827 C-44.16743582 45.35711773 -44.16743582 45.35711773 -42 42 C-41.34 42 -40.68 42 -40 42 C-39.74662872 41.42131165 -39.49325745 40.84262329 -39.23220825 40.24639893 C-37.85603669 37.73754516 -36.31357207 36.07308483 -34.28466797 34.05761719 C-33.52403046 33.29713074 -32.76339294 32.53664429 -31.97970581 31.75311279 C-31.15882477 30.94255432 -30.33794373 30.13199585 -29.4921875 29.296875 C-28.65156769 28.45908508 -27.81094788 27.62129517 -26.94485474 26.75811768 C-24.25955999 24.08401569 -21.56739345 21.41695276 -18.875 18.75 C-17.05292845 16.93795938 -15.23130823 15.12546482 -13.41015625 13.3125 C-8.94532748 8.86971964 -4.47483717 4.43269835 0 0 Z " fill="#010000" transform="translate(780,240)"/>
<path d="M0 0 C8.64886185 6.81896294 13.34410752 16.889874 15.875 27.375 C16.94313923 36.98825305 16.875 46.70258791 16.875 56.375 C-5.895 56.375 -28.665 56.375 -52.125 56.375 C-50.03206984 68.58260475 -50.03206984 68.58260475 -42.4921875 76.5 C-38.94273367 77.81200934 -35.42102542 77.70344161 -31.6875 77.6875 C-30.56118164 77.71166992 -30.56118164 77.71166992 -29.41210938 77.73632812 C-24.83791246 77.74035117 -21.81710905 77.35922348 -18.125 74.375 C-16.29870206 71.30819201 -16.29870206 71.30819201 -15.125 68.375 C-4.23149708 68.81782532 6.24273209 71.10499503 16.875 73.375 C13.51014547 84.55634891 8.13196845 93.36709828 -2.125 99.375 C-12.654902 104.61863541 -21.92207735 105.55492283 -33.5 105.5625 C-34.96566406 105.58086914 -34.96566406 105.58086914 -36.4609375 105.59960938 C-51.87359109 105.6303527 -65.95461898 101.40986513 -77.125 90.375 C-82.58253806 84.06897714 -85.86285333 77.36640256 -88.125 69.375 C-88.46337891 68.18583984 -88.46337891 68.18583984 -88.80859375 66.97265625 C-92.89790694 49.12068903 -91.18937282 28.52503835 -81.6796875 12.69921875 C-73.72401641 0.80569036 -62.5642766 -5.5924401 -48.796875 -9.2421875 C-32.15179576 -11.62700879 -14.11175037 -9.56044157 0 0 Z " fill="#9A6E33" transform="translate(1105.125,690.625)"/>
<path d="M0 0 C11.37642983 9.6393103 15.62412881 20.53122182 17.234375 35.0234375 C17.234375 42.2834375 17.234375 49.5434375 17.234375 57.0234375 C-5.205625 57.0234375 -27.645625 57.0234375 -50.765625 57.0234375 C-49.70124451 67.41861165 -49.70124451 67.41861165 -44.765625 75.0234375 C-38.37807486 79.28180426 -30.18049081 79.03928211 -22.765625 78.0234375 C-19.10980694 76.14635665 -17.23690893 74.96600536 -15.390625 71.2734375 C-15.184375 70.5309375 -14.978125 69.7884375 -14.765625 69.0234375 C-7.05876713 69.3726545 0.40994541 70.08854613 7.984375 71.5234375 C8.6753125 71.65403564 9.36625 71.78463379 10.078125 71.91918945 C14.94843298 72.88046649 14.94843298 72.88046649 17.234375 74.0234375 C14.19590887 85.29774604 8.23917018 93.91154571 -1.66796875 100.23828125 C-11.32413418 105.47117254 -21.39006441 106.50833874 -32.203125 106.3984375 C-33.34072266 106.41003906 -34.47832031 106.42164063 -35.65039062 106.43359375 C-50.43372158 106.38299478 -64.34749324 102.51152196 -75.265625 92.0859375 C-86.78679581 79.45137623 -88.94311451 65.35926601 -89.015625 48.8359375 C-89.03625 47.68029297 -89.056875 46.52464844 -89.078125 45.33398438 C-89.14655983 30.09867974 -85.08549911 16.22671313 -74.328125 5.0234375 C-55.62426711 -12.17153774 -21.04765777 -15.04253507 0 0 Z " fill="#BD9E5B" transform="translate(448.765625,689.9765625)"/>
<path d="M0 0 C35.74258588 -3.34833778 35.74258588 -3.34833778 44.18554688 2.02880859 C48.66462761 6.91634149 51.25405436 12.55713553 53.23022461 18.84521484 C53.88892708 21.17426609 53.88892708 21.17426609 56 23 C56.22510254 22.30326172 56.45020508 21.60652344 56.68212891 20.88867188 C59.55234298 12.86441747 62.89162347 5.0556961 70 0 C81.73836335 -3.71150561 95.98709723 -1.34244952 108 0 C106.64438118 2.83436775 105.12632553 5.42804159 103.375 8.03515625 C102.84132813 8.83179688 102.30765625 9.6284375 101.7578125 10.44921875 C101.17773438 11.31160156 100.59765625 12.17398438 100 13.0625 C99.39929688 13.96484375 98.79859375 14.8671875 98.1796875 15.796875 C94.92071102 20.68533971 91.63015136 25.54869726 88.27734375 30.37315369 C86.5883471 32.80837001 84.91359979 35.25321299 83.24023438 37.69918823 C82.41487828 38.8975996 81.58284453 40.09143992 80.74414062 41.2805481 C79.56244159 42.95725386 78.40436943 44.64815836 77.25 46.34375 C76.57453125 47.31505859 75.8990625 48.28636719 75.203125 49.28710938 C73.706801 51.91907189 73.706801 51.91907189 74.61474609 54.55200195 C76.00609708 57.01077465 77.40076034 59.43803936 78.9140625 61.82421875 C79.79747314 63.22583252 79.79747314 63.22583252 80.69873047 64.65576172 C81.33439941 65.65623535 81.97006836 66.65670898 82.625 67.6875 C83.97479087 69.82890254 85.32371728 71.97085016 86.671875 74.11328125 C87.02140228 74.66794067 87.37092957 75.2226001 87.73104858 75.79406738 C91.46083499 81.71812591 95.13832394 87.67411966 98.80584717 93.63687134 C99.86394858 95.35703364 100.9234115 97.07635236 101.98291016 98.7956543 C102.62534668 99.84019775 103.2677832 100.88474121 103.9296875 101.9609375 C104.49929199 102.88696777 105.06889648 103.81299805 105.65576172 104.76708984 C107 107 107 107 108 109 C70.16989426 112.8002962 70.16989426 112.8002962 62.63671875 106.74267578 C57.31154916 100.745725 54.24045953 93.64620918 52 86 C50.39250173 88.70636875 48.78961541 91.4154418 47.1875 94.125 C46.73568359 94.88554688 46.28386719 95.64609375 45.81835938 96.4296875 C45.37685547 97.17734375 44.93535156 97.925 44.48046875 98.6953125 C44.07723389 99.37609863 43.67399902 100.05688477 43.25854492 100.75830078 C41.74471406 103.45471107 40.3829181 106.23416381 39 109 C26.46 109 13.92 109 1 109 C2.55181671 105.12045823 3.98398021 102.23213918 6.203125 98.78125 C6.84773682 97.77602295 7.49234863 96.7707959 8.15649414 95.73510742 C8.84735107 94.66752197 9.53820801 93.59993652 10.25 92.5 C10.95568115 91.39954346 11.6613623 90.29908691 12.38842773 89.1652832 C15.92208016 83.66695393 19.51167443 78.21586215 23.20703125 72.82421875 C23.85704102 71.87160156 24.50705078 70.91898438 25.17675781 69.9375 C26.41341709 68.13406524 27.66113304 66.33815201 28.92089844 64.55078125 C29.75089355 63.34035156 29.75089355 63.34035156 30.59765625 62.10546875 C31.08758057 61.40574951 31.57750488 60.70603027 32.08227539 59.98510742 C33.18041335 58.05575097 33.18041335 58.05575097 32.78515625 55.98413086 C31.95827354 53.89455505 31.00667559 52.06963527 29.83984375 50.1484375 C29.38351562 49.39191895 28.9271875 48.63540039 28.45703125 47.85595703 C27.95558594 47.03724121 27.45414062 46.21852539 26.9375 45.375 C26.41671875 44.51632324 25.8959375 43.65764648 25.359375 42.77294922 C23.57959487 39.84450563 21.79054413 36.92187381 20 34 C19.31695801 32.88302734 18.63391602 31.76605469 17.93017578 30.61523438 C15.79016895 27.11640903 13.64615253 23.62005854 11.5 20.125 C10.81800537 19.01431152 10.13601074 17.90362305 9.43334961 16.75927734 C5.58737956 10.49524988 5.58737956 10.49524988 1.53125 4.3671875 C0 2 0 2 0 0 Z " fill="#D6C278" transform="translate(475,684)"/>
<path d="M0 0 C11.22 0 22.44 0 34 0 C34 9.9 34 19.8 34 30 C43.9 30 53.8 30 64 30 C64.020625 34.434375 64.04125 38.86875 64.0625 43.4375 C64.071604 44.83798584 64.08070801 46.23847168 64.09008789 47.68139648 C64.09258545 48.77524658 64.09508301 49.86909668 64.09765625 50.99609375 C64.10289307 52.12200928 64.10812988 53.2479248 64.11352539 54.40795898 C64 57 64 57 63 58 C60.85441173 58.08775605 58.70595579 58.10695219 56.55859375 58.09765625 C55.25341797 58.09443359 53.94824219 58.09121094 52.60351562 58.08789062 C51.2148431 58.07953401 49.82617123 58.07106905 48.4375 58.0625 C47.04492344 58.05748666 45.65234519 58.05292347 44.25976562 58.04882812 C40.8398013 58.03699434 37.41992156 58.0205088 34 58 C34.09210866 65.22680173 34.19939246 72.45326226 34.31738281 79.6796875 C34.35573762 82.13959602 34.39057884 84.59956187 34.421875 87.05957031 C34.46738451 90.58940163 34.52540198 94.11883595 34.5859375 97.6484375 C34.59748871 98.75367767 34.60903992 99.85891785 34.62094116 100.99765015 C34.64081085 102.01855743 34.66068054 103.03946472 34.68115234 104.09130859 C34.69447601 104.99287689 34.70779968 105.89444519 34.7215271 106.82333374 C34.80120842 109.20898001 34.80120842 109.20898001 37 111 C40 111.33333333 40 111.33333333 43 111 C45.42130331 108.57869669 45.52840504 107.19888623 46.125 103.875 C46.29257812 102.96492187 46.46015625 102.05484375 46.6328125 101.1171875 C46.81457031 100.06917969 46.81457031 100.06917969 47 99 C56 102 65 105 74 108 C72.15950535 118.46175908 68.2988431 128.09628304 60 135 C48.75480277 142.03458955 36.94874337 142.11449025 24 141 C19.50706124 139.94817175 15.90148285 138.44249761 12 136 C11.32066406 135.58878906 10.64132812 135.17757812 9.94140625 134.75390625 C2.3512547 129.25308674 -1.46664031 118.95929444 -3 110 C-3.25904805 105.94513514 -3.23356235 101.905474 -3.1953125 97.84375 C-3.1924826 96.70087524 -3.18965271 95.55800049 -3.18673706 94.38049316 C-3.17560025 90.75355268 -3.15050741 87.12686504 -3.125 83.5 C-3.11496181 81.03125358 -3.10583743 78.56250327 -3.09765625 76.09375 C-3.07568215 70.06240354 -3.04119703 64.03124455 -3 58 C-7.29 58 -11.58 58 -16 58 C-16 48.76 -16 39.52 -16 30 C-11.38 30 -6.76 30 -2 30 C-2.020625 28.47375 -2.04125 26.9475 -2.0625 25.375 C-2.0625 16.85475555 -1.67245362 8.3622681 0 0 Z " fill="#E9DE90" transform="translate(605,654)"/>
<path d="M0 0 C2.66315844 2.17400689 4.45722892 3.71482367 5.79321289 6.87817383 C6.08649263 9.88749405 5.00869571 11.03041888 3.24609375 13.44921875 C2.63830078 14.29806641 2.03050781 15.14691406 1.40429688 16.02148438 C0.75525391 16.90126953 0.10621094 17.78105469 -0.5625 18.6875 C-1.81475038 20.41988784 -3.06605932 22.1529566 -4.31640625 23.88671875 C-4.93273926 24.73153809 -5.54907227 25.57635742 -6.18408203 26.44677734 C-8.49056816 29.68975018 -10.63616277 33.02503326 -12.75366211 36.39379883 C-13.16495361 36.92384521 -13.57624512 37.4538916 -14 38 C-14.66 38 -15.32 38 -16 38 C-17.35386936 36.34997172 -18.68678142 34.6825613 -20 33 C-23.14911479 31.42544261 -25.52008816 31.65200882 -29 32 C-35.86794258 35.78437653 -38.4745939 42.8450823 -41 50 C-41.77478652 54.67426566 -41.84049298 59.2260482 -41.8046875 63.95703125 C-41.81839386 65.22600754 -41.83210022 66.49498383 -41.84622192 67.80241394 C-41.87697743 71.12868973 -41.88269133 74.45297088 -41.87554932 77.77923584 C-41.87462726 81.19217494 -41.90730354 84.60479592 -41.9375 88.01757812 C-41.99403917 94.67910432 -41.99574412 101.33742131 -42 108 C-54.21 108 -66.42 108 -79 108 C-79 72.03 -79 36.06 -79 -1 C-67.78 -1 -56.56 -1 -45 -1 C-44.505 6.92 -44.505 6.92 -44 15 C-43.175 13.659375 -42.35 12.31875 -41.5 10.9375 C-36.8672985 4.04811955 -31.58681571 -1.31569499 -23.4140625 -3.5625 C-14.9036765 -5.10483533 -7.60203707 -4.2324855 0 0 Z " fill="#B2904F" transform="translate(1003,685)"/>
<path d="M0 0 C11.88 0 23.76 0 36 0 C36 35.97 36 71.94 36 109 C24.12 109 12.24 109 0 109 C0 73.03 0 37.06 0 0 Z " fill="#C3A762" transform="translate(864,684)"/>
<path d="M0 0 C5.33485808 3.79595671 8.657071 7.55869452 10 14 C10.70338 21.3178573 9.54152553 26.78571771 4.875 32.6875 C0.20382993 36.44474549 -4.51770102 38.59380562 -10.4375 39.5625 C-16.59242029 38.59067048 -21.91274038 35.98022067 -26.4375 31.6875 C-29.75600361 25.97967378 -31.83860257 20.70882056 -31 14 C-28.64839429 6.81920401 -24.05192268 2.28569997 -17.5625 -1.375 C-11.44821319 -2.86628947 -5.82620894 -2.26574792 0 0 Z " fill="#C1A561" transform="translate(892,628)"/>
<path d="M0 0 C6.36590304 5.24458586 12.13570612 11.02097322 17.9375 16.875 C18.91708237 17.85960919 19.89689837 18.843986 20.87695312 19.828125 C23.25360252 22.21648203 25.62787356 24.60715212 28 27 C24.95765282 29.45905019 21.90315761 31.09645134 18.34375 32.70703125 C16.68472656 33.4640332 16.68472656 33.4640332 14.9921875 34.23632812 C13.83976563 34.75646484 12.68734375 35.27660156 11.5 35.8125 C2.0726684 40.08730726 -7.29258129 44.44577893 -16.44189453 49.29394531 C-18.26724574 50.2501011 -20.13005859 51.13428639 -22 52 C-22.66 51.67 -23.32 51.34 -24 51 C-23.45061768 49.84588623 -22.90123535 48.69177246 -22.33520508 47.50268555 C-20.27483639 43.17371533 -18.21573012 38.84414561 -16.15698242 34.5144043 C-15.26995081 32.64933457 -14.38258815 30.78442224 -13.49487305 28.91967773 C-6.62787728 14.51534046 -6.62787728 14.51534046 0 0 Z " fill="#050402" transform="translate(524,496)"/>
<path d="M0 0 C2.96957687 2.87958969 4.87093739 6.0325625 6.0625 10 C6.0625 12.31 6.0625 14.62 6.0625 17 C-3.8375 17 -13.7375 17 -23.9375 17 C-22.64536517 5.37078652 -22.64536517 5.37078652 -16.875 0.125 C-11.42469538 -1.96235071 -5.51004298 -1.87575931 0 0 Z " fill="#060402" transform="translate(1077.9375,708)"/>
<path d="M0 0 C3.2875345 2.42651356 5.45146785 5.03723139 6.625 8.9375 C6.625 11.5775 6.625 14.2175 6.625 16.9375 C-3.275 16.9375 -13.175 16.9375 -23.375 16.9375 C-21.90197095 5.15326763 -21.90197095 5.15326763 -16.25 0 C-10.79916298 -2.01443977 -5.49749082 -1.73069155 0 0 Z " fill="#060503" transform="translate(421.375,708.0625)"/>
<path d="M0 0 C4.56030824 3.80475422 8.85089392 7.74969621 13 12 C11.46356148 15.68069887 9.21849055 17.98775204 6.375 20.75 C5.55773437 21.54921875 4.74046875 22.3484375 3.8984375 23.171875 C3.27195312 23.77515625 2.64546875 24.3784375 2 25 C-1.90285767 23.41332422 -4.33520982 20.86649519 -7.25 17.875 C-8.14203125 16.96492188 -9.0340625 16.05484375 -9.953125 15.1171875 C-10.62859375 14.41851562 -11.3040625 13.71984375 -12 13 C-8.19524578 8.43969176 -4.25030379 4.14910608 0 0 Z " fill="#0C0804" transform="translate(812,223)"/>
</svg>
